<svg width="180" height="31" viewBox="0 0 180 31" fill="none" xmlns="http://www.w3.org/2000/svg">
<g clip-path="url(#clip0_5359_4749)">
<path fill-rule="evenodd" clip-rule="evenodd" d="M28.3351 29.8155L25.6172 3.10156H16.6649C16.6649 3.10156 15.7351 7.22607 15.294 9.87242C14.8172 12.781 14.1735 17.4181 14.1735 17.4181C14.1735 17.4181 13.6132 12.8168 13.1364 9.92011C12.743 7.26183 11.9444 3.11348 11.9444 3.11348H3.0755L0 29.8155H7.77219C7.77219 29.8155 8.10596 24.7492 8.23709 21.5069C8.34437 18.2764 8.41589 13.091 8.41589 13.091C8.41589 13.091 9.21457 18.3002 9.69139 21.5784C10.2755 24.785 11.1338 29.8155 11.1338 29.8155H16.9987C16.9987 29.8155 18.0477 24.2486 18.7152 20.7678C19.1921 17.7638 19.9788 13.0552 19.9788 13.0552C19.9788 13.0552 20.0742 17.7638 20.2172 20.6963C20.3722 24.2605 20.8371 29.8274 20.8371 29.8274H28.3351V29.8155Z" fill="white"/>
<path fill-rule="evenodd" clip-rule="evenodd" d="M44.0918 9.48999V3.10059H30.8242V29.8145H44.0798V23.4251H37.8812V19.4079H43.4361V13.09H37.8812V9.48999H44.0918Z" fill="white"/>
<path fill-rule="evenodd" clip-rule="evenodd" d="M62.1308 9.49097V3.10156H46.7891V9.49097H50.7467V29.8155H57.9944V9.49097H62.1308Z" fill="white"/>
<path fill-rule="evenodd" clip-rule="evenodd" d="M126.237 16.9767V14.4019H116.2V20.0046H118.846V20.8032C118.846 22.341 117.547 23.9741 116.367 23.9026C113.268 23.688 113.661 18.2165 113.661 16.333C113.613 13.5675 113.864 9.14496 116.629 9.07343C117.547 9.02575 118.584 10.1224 118.835 11.7436L125.665 9.1688L125.427 8.68006C123.376 4.28138 120.193 2.60059 116.498 2.60059C108.988 2.62443 106.092 9.96747 106.282 16.7622C106.378 23.3662 108.738 30.0655 116.677 30.3158C123.925 30.5065 126.273 23.2946 126.273 16.9529L126.237 16.9767Z" fill="white"/>
<path fill-rule="evenodd" clip-rule="evenodd" d="M162.37 21.22C162.524 14.7352 155.539 13.3763 155.587 10.718C155.587 10.0028 156.242 9.08487 157.47 9.10872C158.829 9.1564 160.057 10.0028 160.629 10.6822L161.666 11.8624V3.86368L160.76 3.43454C160.474 3.2915 158.138 2.5405 156.421 2.49282C151.713 2.43322 148.709 6.58156 148.506 11.3736C148.268 17.4769 155.289 19.4319 155.265 21.5895C155.265 22.2809 155.432 23.6518 153.191 23.9021C152.809 23.9379 150.711 23.8783 149.233 21.7326L148.613 20.8981V29.0875L149.591 29.5167C150.068 29.7312 152.285 30.2796 154.013 30.2438C159.64 30.1365 162.179 25.9882 162.381 21.1961L162.37 21.22Z" fill="white"/>
<path fill-rule="evenodd" clip-rule="evenodd" d="M83.9095 29.8157L78.6167 18.6342L79.3201 18.2885C81.8353 17.0249 82.6578 14.4501 82.6936 11.8991C82.777 6.92825 80.7148 3.08984 72.0724 3.08984H65.0273V29.8038H72.2154V18.8845C72.2154 18.8845 73.6817 23.2475 74.683 25.9653C75.2552 27.4196 76.1969 29.8038 76.1969 29.8038H83.9095V29.8157ZM75.6247 11.911C75.6009 13.5441 74.6472 15.3918 73.0141 15.3918H72.2035V8.76402H72.8591C74.2538 8.76402 75.6128 9.90839 75.6128 11.911H75.6247Z" fill="white"/>
<path fill-rule="evenodd" clip-rule="evenodd" d="M104.234 16.8335C104.377 9.87195 100.92 2.37393 93.3859 2.62427C86.8892 2.83883 83.7422 9.88387 83.7422 16.3448C83.7422 22.8057 86.6031 30.1368 93.827 30.3037C100.848 30.4468 104.126 23.3898 104.222 16.8335H104.234ZM96.7356 16.6547C96.7356 19.611 96.1038 23.9859 93.9462 23.807C91.6097 23.6402 91.0376 19.4918 91.0852 16.4163C91.1091 13.4362 91.8958 9.39513 93.9223 9.34744C96.2111 9.27592 96.7356 13.615 96.7356 16.6428V16.6547Z" fill="white"/>
<path fill-rule="evenodd" clip-rule="evenodd" d="M146.967 29.8145L141.162 3.10059H132.377L126.047 29.8145H133.45L134.129 26.4171H139.004L139.529 29.8145H146.967ZM138.099 20.8026H134.999L136.692 9.59727L138.099 20.8026Z" fill="white"/>
<path fill-rule="evenodd" clip-rule="evenodd" d="M174.258 6.82013C174.735 7.65456 174.854 7.88105 175.319 8.81086L175.379 8.85854C175.605 8.8347 175.82 8.82278 176.046 8.81086C176.285 8.81086 176.511 8.81086 176.726 8.81086L176.774 8.72741C176.487 8.3698 176.428 8.26251 175.891 7.42807C175.677 7.05854 175.558 6.86781 175.355 6.55787C175.677 6.40291 176.344 6.1049 176.344 5.19893C176.344 4.86516 176.273 4.20953 175.665 3.88768C175.295 3.69695 174.902 3.69695 174.08 3.72079H173.543H172.685L172.613 3.75655C172.649 4.4837 172.685 5.24662 172.685 7.2135C172.685 7.89297 172.685 8.20291 172.661 8.81086L172.709 8.85854C173.245 8.8347 173.376 8.82278 173.96 8.8347L173.984 8.78701C173.936 7.9645 173.936 7.73801 173.913 6.86781L174.27 6.84397L174.258 6.82013ZM173.913 4.57907H174.211C174.497 4.57907 175.057 4.57907 175.057 5.21086C175.057 5.40158 175.009 5.67576 174.735 5.84264C174.532 5.96185 174.27 5.98569 173.913 5.98569V4.57907Z" fill="white"/>
<path d="M174.557 11.6364C171.553 11.6364 169.098 9.19266 169.098 6.18869C169.098 3.18472 171.541 0.75293 174.557 0.75293C177.573 0.75293 180.005 3.19664 180.005 6.18869C180.005 9.18074 177.561 11.6364 174.557 11.6364ZM174.557 1.46816C171.947 1.46816 169.813 3.59002 169.813 6.20061C169.813 8.81121 171.947 10.9331 174.557 10.9331C177.168 10.9331 179.29 8.81121 179.29 6.20061C179.29 3.59002 177.168 1.46816 174.557 1.46816Z" fill="white"/>
</g>
<defs>
<clipPath id="clip0_5359_4749">
<rect width="180" height="29.5868" fill="white" transform="translate(0 0.75293)"/>
</clipPath>
</defs>
</svg>
